<svg width="356" height="139" viewBox="0 0 356 139" fill="none" xmlns="http://www.w3.org/2000/svg">
<g style="mix-blend-mode:multiply" opacity="0.33">
<path d="M35.5035 27.4981L0.471863 63.8387V138.459H355.312V69.7302C348.118 62.6606 332.428 46.9957 327.219 40.8935C320.708 33.2657 308.615 36.8005 300.243 36.6145C291.871 36.4284 288.15 29.3588 288.522 18.1962C288.894 7.03358 286.848 7.40556 280.894 2.94052C276.132 -0.631515 267.871 6.16527 264.336 10.0102C252.12 22.289 226.012 48.5584 219.314 55.4048C212.616 62.2512 205.857 58.2574 203.314 55.4048C192.896 45.2964 169.864 22.8843 161.082 14.103C152.301 5.32168 144.152 10.4441 141.176 14.103C137.951 17.2037 130.497 24.2238 126.478 27.4981C121.455 31.5911 109.176 28.8004 102.293 27.4981C95.4091 26.1958 92.2464 25.0796 84.6186 32.3352C76.9908 39.5909 71.8746 40.2421 59.1306 27.4981C48.9354 17.3029 39.1312 23.2501 35.5035 27.4981Z" fill="url(#paint0_linear_25_474)"/>
</g>
<path d="M2.02185 63.8387L36.7476 27.4981C40.3437 23.2501 50.0624 17.3029 60.1686 27.4981C72.8013 40.2421 77.8728 39.5909 85.434 32.3352C92.9952 25.0796 96.1303 26.1958 102.954 27.4981C109.777 28.8004 121.949 31.5911 126.928 27.4981C130.912 24.2238 138.301 17.2037 141.497 14.103C144.448 10.4441 152.526 5.32168 161.23 14.103C169.935 22.8843 192.766 45.2964 203.094 55.4048C205.614 58.2574 212.314 62.2512 218.954 55.4048C225.593 48.5584 251.473 22.289 263.583 10.0102C267.087 6.16527 275.275 -0.631515 279.996 2.94052C285.898 7.40556 287.926 7.03358 287.558 18.1962C287.189 29.3588 290.877 36.4284 299.176 36.6145C307.475 36.8005 319.462 33.2657 325.917 40.8935C331.08 46.9957 346.633 62.6606 353.764 69.7302" stroke="#B99A25" stroke-width="3.2" stroke-linecap="round" stroke-linejoin="round"/>
<defs>
<linearGradient id="paint0_linear_25_474" x1="177.892" y1="62.4572" x2="177.892" y2="138.459" gradientUnits="userSpaceOnUse">
<stop stop-color="#B99A25"/>
<stop offset="0.46679" stop-color="#B99A25" stop-opacity="0.26"/>
<stop offset="1" stop-color="#F7F7F7" stop-opacity="0.31"/>
</linearGradient>
</defs>
</svg>
