<svg width="20" height="20" viewBox="0 0 20 20" fill="none" xmlns="http://www.w3.org/2000/svg">
<g clip-path="url(#clip0_24_384)">
<path d="M5.83331 9.16667C5.83331 8.72464 6.00891 8.30072 6.32147 7.98816C6.63403 7.6756 7.05795 7.5 7.49998 7.5H15.8333C16.2753 7.5 16.6993 7.6756 17.0118 7.98816C17.3244 8.30072 17.5 8.72464 17.5 9.16667V14.1667C17.5 14.6087 17.3244 15.0326 17.0118 15.3452C16.6993 15.6577 16.2753 15.8333 15.8333 15.8333H7.49998C7.05795 15.8333 6.63403 15.6577 6.32147 15.3452C6.00891 15.0326 5.83331 14.6087 5.83331 14.1667V9.16667Z" stroke="#818181" stroke-width="1.25" stroke-linecap="round" stroke-linejoin="round"/>
<path d="M10 11.6667C10 12.1087 10.1756 12.5326 10.4882 12.8452C10.8007 13.1577 11.2246 13.3333 11.6667 13.3333C12.1087 13.3333 12.5326 13.1577 12.8452 12.8452C13.1577 12.5326 13.3333 12.1087 13.3333 11.6667C13.3333 11.2246 13.1577 10.8007 12.8452 10.4882C12.5326 10.1756 12.1087 10 11.6667 10C11.2246 10 10.8007 10.1756 10.4882 10.4882C10.1756 10.8007 10 11.2246 10 11.6667Z" stroke="#818181" stroke-width="1.25" stroke-linecap="round" stroke-linejoin="round"/>
<path d="M14.1667 7.50008V5.83341C14.1667 5.39139 13.9911 4.96746 13.6785 4.6549C13.366 4.34234 12.942 4.16675 12.5 4.16675H4.16667C3.72464 4.16675 3.30072 4.34234 2.98816 4.6549C2.67559 4.96746 2.5 5.39139 2.5 5.83341V10.8334C2.5 11.2754 2.67559 11.6994 2.98816 12.0119C3.30072 12.3245 3.72464 12.5001 4.16667 12.5001H5.83333" stroke="#818181" stroke-width="1.25" stroke-linecap="round" stroke-linejoin="round"/>
</g>
<defs>
<clipPath id="clip0_24_384">
<rect width="20" height="20" fill="white"/>
</clipPath>
</defs>
</svg>
