<svg width="32" height="32" viewBox="0 0 32 32" fill="none" xmlns="http://www.w3.org/2000/svg">
<g clip-path="url(#clip0_24_375)">
<path d="M12 18.6666C12 20.876 15.5813 22.6666 20 22.6666C24.4187 22.6666 28 20.876 28 18.6666C28 16.4573 24.4187 14.6666 20 14.6666C15.5813 14.6666 12 16.4573 12 18.6666Z" stroke="white" stroke-width="2" stroke-linecap="round" stroke-linejoin="round"/>
<path d="M12 18.6666V24C12 26.208 15.5813 28 20 28C24.4187 28 28 26.208 28 24V18.6666" stroke="white" stroke-width="2" stroke-linecap="round" stroke-linejoin="round"/>
<path d="M4 8C4 9.42933 5.52533 10.7493 8 11.464C10.4747 12.1787 13.5253 12.1787 16 11.464C18.4747 10.7493 20 9.42933 20 8C20 6.57067 18.4747 5.25067 16 4.536C13.5253 3.82133 10.4747 3.82133 8 4.536C5.52533 5.25067 4 6.57067 4 8Z" stroke="white" stroke-width="2" stroke-linecap="round" stroke-linejoin="round"/>
<path d="M4 8V21.3333C4 22.5173 5.02933 23.2667 6.66667 24" stroke="white" stroke-width="2" stroke-linecap="round" stroke-linejoin="round"/>
<path d="M4 14.6666C4 15.8506 5.02933 16.6 6.66667 17.3333" stroke="white" stroke-width="2" stroke-linecap="round" stroke-linejoin="round"/>
</g>
<defs>
<clipPath id="clip0_24_375">
<rect width="32" height="32" fill="white"/>
</clipPath>
</defs>
</svg>
