<svg width="26" height="26" viewBox="0 0 26 26" fill="none" xmlns="http://www.w3.org/2000/svg">
<g clip-path="url(#clip0_5_152)">
<path d="M7.94444 5.93848V20.0615C7.9444 20.2186 7.9855 20.3728 8.0635 20.5083C8.14151 20.6437 8.25359 20.7556 8.38818 20.8322C8.52278 20.9088 8.67501 20.9475 8.82918 20.9442C8.98335 20.941 9.13387 20.8958 9.2652 20.8135L20.5315 13.752C20.6577 13.6731 20.7619 13.5625 20.8342 13.4308C20.9065 13.2992 20.9444 13.1508 20.9444 13C20.9444 12.8491 20.9065 12.7008 20.8342 12.5692C20.7619 12.4375 20.6577 12.3269 20.5315 12.2479L9.2652 5.18643C9.13387 5.10413 8.98335 5.05901 8.82918 5.05573C8.67501 5.05245 8.52278 5.09113 8.38818 5.16777C8.25359 5.24441 8.14151 5.35624 8.0635 5.49172C7.9855 5.6272 7.9444 5.78142 7.94444 5.93848Z" fill="#FCFDFD"/>
</g>
<defs>
<clipPath id="clip0_5_152">
<rect width="26" height="26" fill="white"/>
</clipPath>
</defs>
</svg>
