<svg width="42" height="42" viewBox="0 0 42 42" fill="none" xmlns="http://www.w3.org/2000/svg">
<rect y="-0.000488281" width="42" height="42" rx="8" fill="#B99A25"/>
<path d="M20 12.9995C20 12.4472 20.4477 11.9995 21 11.9995C21.5523 11.9995 22 12.4472 22 12.9995V28.9995C22 29.5518 21.5523 29.9995 21 29.9995C20.4477 29.9995 20 29.5518 20 28.9995V12.9995Z" fill="white"/>
<path d="M12 20.9995C12 20.4472 12.4477 19.9995 13 19.9995H29C29.5523 19.9995 30 20.4472 30 20.9995C30 21.5518 29.5523 21.9995 29 21.9995H13C12.4477 21.9995 12 21.5518 12 20.9995Z" fill="white"/>
</svg>
