<svg width="126" height="23" viewBox="0 0 126 23" fill="none" xmlns="http://www.w3.org/2000/svg">
<path d="M16.0986 20.2636C15.9501 20.2634 15.8038 20.2272 15.6723 20.1582L11.0001 17.7015L6.32785 20.1582C6.17646 20.2378 6.00583 20.2734 5.83524 20.2611C5.66465 20.2488 5.50091 20.189 5.36253 20.0885C5.22416 19.9879 5.11666 19.8507 5.0522 19.6923C4.98774 19.5339 4.96888 19.3606 4.99777 19.192L5.88968 13.989L2.11027 10.304C1.98797 10.1846 1.9015 10.0334 1.86061 9.86742C1.81971 9.70147 1.82603 9.52739 1.87885 9.36484C1.93167 9.20229 2.02888 9.05774 2.15951 8.94752C2.29014 8.8373 2.44898 8.76579 2.6181 8.74108L7.84218 7.98208L10.1778 3.24841C10.2623 3.10551 10.3826 2.98709 10.5268 2.90482C10.671 2.82256 10.8341 2.7793 11.0001 2.7793C11.1661 2.7793 11.3292 2.82256 11.4734 2.90482C11.6176 2.98709 11.7379 3.10551 11.8223 3.24841L14.158 7.98208L19.3821 8.74108C19.5514 8.76566 19.7105 8.83714 19.8413 8.94742C19.972 9.0577 20.0694 9.20239 20.1222 9.36511C20.1751 9.52783 20.1813 9.70209 20.1403 9.86817C20.0992 10.0343 20.0125 10.1855 19.8899 10.3049L16.1105 13.989L17.0024 19.192C17.025 19.3236 17.0185 19.4585 16.9835 19.5874C16.9485 19.7162 16.8857 19.8359 16.7997 19.9379C16.7136 20.04 16.6062 20.122 16.4851 20.1783C16.364 20.2345 16.2321 20.2636 16.0986 20.2636Z" fill="#F9C234"/>
<path d="M42.0986 20.2636C41.9501 20.2634 41.8038 20.2272 41.6723 20.1582L37.0001 17.7015L32.3278 20.1582C32.1765 20.2378 32.0058 20.2734 31.8352 20.2611C31.6647 20.2488 31.5009 20.189 31.3625 20.0885C31.2242 19.9879 31.1167 19.8507 31.0522 19.6923C30.9877 19.5339 30.9689 19.3606 30.9978 19.192L31.8897 13.989L28.1103 10.304C27.988 10.1846 27.9015 10.0334 27.8606 9.86742C27.8197 9.70147 27.826 9.52739 27.8789 9.36484C27.9317 9.20229 28.0289 9.05774 28.1595 8.94752C28.2901 8.8373 28.449 8.76579 28.6181 8.74108L33.8422 7.98208L36.1778 3.24841C36.2623 3.10551 36.3826 2.98709 36.5268 2.90482C36.671 2.82256 36.8341 2.7793 37.0001 2.7793C37.1661 2.7793 37.3292 2.82256 37.4734 2.90482C37.6176 2.98709 37.7379 3.10551 37.8223 3.24841L40.158 7.98208L45.3821 8.74108C45.5514 8.76566 45.7105 8.83714 45.8413 8.94742C45.972 9.0577 46.0694 9.20239 46.1222 9.36511C46.1751 9.52783 46.1813 9.70209 46.1403 9.86817C46.0992 10.0343 46.0125 10.1855 45.8899 10.3049L42.1105 13.989L43.0024 19.192C43.025 19.3236 43.0185 19.4585 42.9835 19.5874C42.9485 19.7162 42.8857 19.8359 42.7997 19.9379C42.7136 20.04 42.6062 20.122 42.4851 20.1783C42.364 20.2345 42.2321 20.2636 42.0986 20.2636Z" fill="#F9C234"/>
<path d="M68.0986 20.2636C67.9501 20.2634 67.8038 20.2272 67.6723 20.1582L63.0001 17.7015L58.3278 20.1582C58.1765 20.2378 58.0058 20.2734 57.8352 20.2611C57.6647 20.2488 57.5009 20.189 57.3625 20.0885C57.2242 19.9879 57.1167 19.8507 57.0522 19.6923C56.9877 19.5339 56.9689 19.3606 56.9978 19.192L57.8897 13.989L54.1103 10.304C53.988 10.1846 53.9015 10.0334 53.8606 9.86742C53.8197 9.70147 53.826 9.52739 53.8789 9.36484C53.9317 9.20229 54.0289 9.05774 54.1595 8.94752C54.2901 8.8373 54.449 8.76579 54.6181 8.74108L59.8422 7.98208L62.1778 3.24841C62.2623 3.10551 62.3826 2.98709 62.5268 2.90482C62.671 2.82256 62.8341 2.7793 63.0001 2.7793C63.1661 2.7793 63.3292 2.82256 63.4734 2.90482C63.6176 2.98709 63.7379 3.10551 63.8223 3.24841L66.158 7.98208L71.3821 8.74108C71.5514 8.76566 71.7105 8.83714 71.8413 8.94742C71.972 9.0577 72.0694 9.20239 72.1222 9.36511C72.1751 9.52783 72.1813 9.70209 72.1403 9.86817C72.0992 10.0343 72.0125 10.1855 71.8899 10.3049L68.1105 13.989L69.0024 19.192C69.025 19.3236 69.0185 19.4585 68.9835 19.5874C68.9485 19.7162 68.8857 19.8359 68.7997 19.9379C68.7136 20.04 68.6062 20.122 68.4851 20.1783C68.364 20.2345 68.2321 20.2636 68.0986 20.2636Z" fill="#F9C234"/>
<path d="M94.0986 20.2636C93.9501 20.2634 93.8038 20.2272 93.6723 20.1582L89.0001 17.7015L84.3278 20.1582C84.1765 20.2378 84.0058 20.2734 83.8352 20.2611C83.6647 20.2488 83.5009 20.189 83.3625 20.0885C83.2242 19.9879 83.1167 19.8507 83.0522 19.6923C82.9877 19.5339 82.9689 19.3606 82.9978 19.192L83.8897 13.989L80.1103 10.304C79.988 10.1846 79.9015 10.0334 79.8606 9.86742C79.8197 9.70147 79.826 9.52739 79.8789 9.36484C79.9317 9.20229 80.0289 9.05774 80.1595 8.94752C80.2901 8.8373 80.449 8.76579 80.6181 8.74108L85.8422 7.98208L88.1778 3.24841C88.2623 3.10551 88.3826 2.98709 88.5268 2.90482C88.671 2.82256 88.8341 2.7793 89.0001 2.7793C89.1661 2.7793 89.3292 2.82256 89.4734 2.90482C89.6176 2.98709 89.7379 3.10551 89.8223 3.24841L92.158 7.98208L97.3821 8.74108C97.5514 8.76566 97.7105 8.83714 97.8413 8.94742C97.972 9.0577 98.0694 9.20239 98.1222 9.36511C98.1751 9.52783 98.1813 9.70209 98.1403 9.86817C98.0992 10.0343 98.0125 10.1855 97.8899 10.3049L94.1105 13.989L95.0024 19.192C95.025 19.3236 95.0185 19.4585 94.9835 19.5874C94.9485 19.7162 94.8857 19.8359 94.7997 19.9379C94.7136 20.04 94.6062 20.122 94.4851 20.1783C94.364 20.2345 94.2321 20.2636 94.0986 20.2636Z" fill="#F9C234"/>
<path d="M120.099 20.2636C119.95 20.2634 119.804 20.2272 119.672 20.1582L115 17.7015L110.328 20.1582C110.176 20.2378 110.006 20.2734 109.835 20.2611C109.665 20.2488 109.501 20.189 109.363 20.0885C109.224 19.9879 109.117 19.8507 109.052 19.6923C108.988 19.5339 108.969 19.3606 108.998 19.192L109.89 13.989L106.11 10.304C105.988 10.1846 105.901 10.0334 105.861 9.86742C105.82 9.70147 105.826 9.52739 105.879 9.36484C105.932 9.20229 106.029 9.05774 106.16 8.94752C106.29 8.8373 106.449 8.76579 106.618 8.74108L111.842 7.98208L114.178 3.24841C114.262 3.10551 114.383 2.98709 114.527 2.90482C114.671 2.82256 114.834 2.7793 115 2.7793C115.166 2.7793 115.329 2.82256 115.473 2.90482C115.618 2.98709 115.738 3.10551 115.822 3.24841L118.158 7.98208L123.382 8.74108C123.551 8.76566 123.71 8.83714 123.841 8.94742C123.972 9.0577 124.069 9.20239 124.122 9.36511C124.175 9.52783 124.181 9.70209 124.14 9.86817C124.099 10.0343 124.012 10.1855 123.89 10.3049L120.111 13.989L121.002 19.192C121.025 19.3236 121.019 19.4585 120.984 19.5874C120.948 19.7162 120.886 19.8359 120.8 19.9379C120.714 20.04 120.606 20.122 120.485 20.1783C120.364 20.2345 120.232 20.2636 120.099 20.2636Z" fill="#F9C234"/>
</svg>
