<svg width="191" height="34" viewBox="0 0 191 34" fill="none" xmlns="http://www.w3.org/2000/svg">
<rect x="156.5" width="34" height="34" rx="4" fill="white"/>
<path d="M170.071 24.7889C167.943 24.7889 165.959 24.1514 164.29 23.0514C165.707 23.1459 168.209 22.9197 169.765 21.3909C167.424 21.2803 166.369 19.4311 166.231 18.6409C166.43 18.7199 167.378 18.8148 167.914 18.5935C165.221 17.8981 164.808 15.4642 164.9 14.7214C165.405 15.0849 166.262 15.2113 166.598 15.1797C164.089 13.3306 164.992 10.549 165.435 9.94838C167.236 12.5178 169.934 13.9609 173.272 14.0412C173.209 13.7568 173.176 13.4608 173.176 13.1567C173.176 10.9746 174.888 9.20557 177.001 9.20557C178.104 9.20557 179.099 9.68848 179.797 10.4609C180.534 10.2829 181.644 9.86621 182.187 9.50585C181.913 10.5173 181.062 11.3611 180.547 11.6739C180.542 11.6632 180.551 11.6845 180.547 11.6739C180.999 11.6034 182.223 11.3611 182.707 11.0231C182.468 11.5913 181.565 12.5362 180.824 13.0651C180.962 19.3266 176.311 24.7889 170.071 24.7889Z" fill="#000032"/>
<rect x="104.5" width="34" height="34" rx="4" fill="white"/>
<path d="M125.193 16.4939L125.634 13.6949H122.878V11.8794C122.878 11.1135 123.262 10.3664 124.496 10.3664H125.75V7.98355C125.75 7.98355 124.613 7.79443 123.526 7.79443C121.256 7.79443 119.773 9.13527 119.773 11.5617V13.6949H117.25V16.4939H119.773V26.2111H122.878V16.4939H125.193Z" fill="#000032"/>
<rect x="52.5" width="34" height="34" rx="4" fill="white"/>
<path d="M64.7328 10.0204C64.7328 11.2498 63.7383 12.2464 62.5114 12.2464C61.2846 12.2464 60.29 11.2498 60.29 10.0204C60.29 8.79104 61.2846 7.79443 62.5114 7.79443C63.7383 7.79443 64.7328 8.79104 64.7328 10.0204Z" fill="#000032"/>
<path d="M60.5938 13.8826H64.3911V26.2111H60.5938V13.8826Z" fill="#000032"/>
<path d="M70.5046 13.8826H66.7074V26.2111H70.5046C70.5046 26.2111 70.5046 22.3299 70.5046 19.9032C70.5046 18.4467 70.9688 16.9837 72.821 16.9837C74.9141 16.9837 74.9015 18.8899 74.8918 20.3666C74.879 22.2968 74.9095 24.2666 74.9095 26.2111H78.7067V19.7044C78.6745 15.5497 77.6641 13.6353 74.3399 13.6353C72.3657 13.6353 71.142 14.5955 70.5046 15.4643V13.8826Z" fill="#000032"/>
<rect x="0.5" width="34" height="34" rx="4" fill="white"/>
<path d="M23.9442 11.9382C23.9442 12.701 23.3258 13.3194 22.563 13.3194C21.8001 13.3194 21.1817 12.701 21.1817 11.9382C21.1817 11.1753 21.8001 10.5569 22.563 10.5569C23.3258 10.5569 23.9442 11.1753 23.9442 11.9382Z" fill="#000032"/>
<path fill-rule="evenodd" clip-rule="evenodd" d="M17.4984 21.6069C20.0412 21.6069 22.1025 19.5456 22.1025 17.0028C22.1025 14.46 20.0412 12.3986 17.4984 12.3986C14.9556 12.3986 12.8942 14.46 12.8942 17.0028C12.8942 19.5456 14.9556 21.6069 17.4984 21.6069ZM17.4984 19.7653C19.0241 19.7653 20.2609 18.5285 20.2609 17.0028C20.2609 15.4771 19.0241 14.2403 17.4984 14.2403C15.9727 14.2403 14.7359 15.4771 14.7359 17.0028C14.7359 18.5285 15.9727 19.7653 17.4984 19.7653Z" fill="#000032"/>
<path fill-rule="evenodd" clip-rule="evenodd" d="M8.29004 16.6344C8.29004 13.5401 8.29004 11.993 8.89223 10.8111C9.42193 9.77154 10.2671 8.92632 11.3067 8.39662C12.4886 7.79443 14.0357 7.79443 17.13 7.79443H17.8667C20.961 7.79443 22.5081 7.79443 23.69 8.39662C24.7296 8.92632 25.5748 9.77154 26.1045 10.8111C26.7067 11.993 26.7067 13.5401 26.7067 16.6344V17.3711C26.7067 20.4654 26.7067 22.0125 26.1045 23.1944C25.5748 24.234 24.7296 25.0792 23.69 25.6089C22.5081 26.2111 20.961 26.2111 17.8667 26.2111H17.13C14.0357 26.2111 12.4886 26.2111 11.3067 25.6089C10.2671 25.0792 9.42193 24.234 8.89223 23.1944C8.29004 22.0125 8.29004 20.4654 8.29004 17.3711V16.6344ZM17.13 9.6361H17.8667C19.4442 9.6361 20.5166 9.63753 21.3455 9.70526C22.153 9.77123 22.5659 9.8908 22.8539 10.0376C23.547 10.3907 24.1104 10.9542 24.4636 11.6472C24.6103 11.9353 24.7299 12.3482 24.7959 13.1556C24.8636 13.9845 24.865 15.0569 24.865 16.6344V17.3711C24.865 18.9486 24.8636 20.021 24.7959 20.8499C24.7299 21.6574 24.6103 22.0703 24.4636 22.3583C24.1104 23.0514 23.547 23.6148 22.8539 23.968C22.5659 24.1147 22.153 24.2343 21.3455 24.3003C20.5166 24.368 19.4442 24.3694 17.8667 24.3694H17.13C15.5525 24.3694 14.4801 24.368 13.6512 24.3003C12.8438 24.2343 12.4309 24.1147 12.1428 23.968C11.4498 23.6148 10.8863 23.0514 10.5332 22.3583C10.3864 22.0703 10.2668 21.6574 10.2009 20.8499C10.1331 20.021 10.1317 18.9486 10.1317 17.3711V16.6344C10.1317 15.0569 10.1331 13.9845 10.2009 13.1556C10.2668 12.3482 10.3864 11.9353 10.5332 11.6472C10.8863 10.9542 11.4498 10.3907 12.1428 10.0376C12.4309 9.8908 12.8438 9.77123 13.6512 9.70526C14.4801 9.63753 15.5525 9.6361 17.13 9.6361Z" fill="#000032"/>
</svg>
