<svg width="1240" height="311" viewBox="0 0 1240 311" fill="none" xmlns="http://www.w3.org/2000/svg">
<mask id="mask0_29_85" style="mask-type:alpha" maskUnits="userSpaceOnUse" x="0" y="0" width="1240" height="311">
<rect width="1240" height="311" rx="15" fill="#000032"/>
</mask>
<g mask="url(#mask0_29_85)">
<g opacity="0.5">
<g opacity="0.46">
<path d="M-256.074 -204C-256.074 -204 404.159 358.333 1226.85 45.9621C2049.55 -266.408 1460.85 887.227 1460.85 887.227" stroke="#3C3C3B" stroke-width="1.5" stroke-miterlimit="10"/>
<path d="M-293.447 -178.11C-293.447 -178.11 384.085 364.658 1189.34 48.3135C1986.04 -262.082 1458.55 874.168 1458.55 874.168" stroke="#424241" stroke-width="1.5" stroke-miterlimit="10"/>
<path d="M-330.82 -152.173C-330.82 -152.173 363.141 368.844 1151.81 50.6652C1921.67 -259.926 1456.23 861.141 1456.23 861.141" stroke="#484847" stroke-width="1.5" stroke-miterlimit="10"/>
<path d="M-368.185 -126.307C-368.185 -126.307 342.652 374.252 1114.3 53.0166C1857.77 -256.493 1453.94 848.051 1453.94 848.051" stroke="#4E4E4D" stroke-width="1.5" stroke-miterlimit="10"/>
<path d="M-405.557 -100.441C-405.557 -100.441 322.186 379.778 1076.78 55.368C1793.91 -252.934 1451.63 834.993 1451.63 834.993" stroke="#545453" stroke-width="1.5" stroke-miterlimit="10"/>
<path d="M-442.93 -74.5278C-442.93 -74.5278 301.744 385.421 1039.29 57.7115C1730.1 -249.243 1449.34 821.942 1449.34 821.942" stroke="#5A5A59" stroke-width="1.5" stroke-miterlimit="10"/>
<path d="M-480.303 -48.6299C-480.303 -48.6299 281.349 391.198 1001.74 60.0633C1666.29 -245.394 1447.02 808.876 1447.02 808.876" stroke="#60605F" stroke-width="1.5" stroke-miterlimit="10"/>
<path d="M-517.668 -22.7402C-517.668 -22.7402 260.993 397.124 964.226 62.4146C1602.56 -241.404 1444.71 795.817 1444.71 795.817" stroke="#666665" stroke-width="1.5" stroke-miterlimit="10"/>
<path d="M-555.041 3.15723C-555.041 3.15723 240.692 403.206 926.704 64.7659C1538.87 -237.25 1442.41 782.751 1442.41 782.751" stroke="#6C6C6B" stroke-width="1.5" stroke-miterlimit="10"/>
<path d="M-592.414 29.0549C-592.414 29.0549 220.477 409.461 889.229 67.1175C1475.29 -232.908 1440.1 769.708 1440.1 769.708" stroke="#737372" stroke-width="1.5" stroke-miterlimit="10"/>
<path d="M-629.786 54.945C-629.786 54.945 200.348 415.913 851.645 69.4693C1411.74 -228.455 1437.77 756.65 1437.77 756.65" stroke="#797978" stroke-width="1.5" stroke-miterlimit="10"/>
<path d="M-667.152 80.8426C-667.152 80.8426 180.329 422.591 814.146 71.8207C1348.35 -223.799 1435.49 743.56 1435.49 743.56" stroke="#7F7F7E" stroke-width="1.5" stroke-miterlimit="10"/>
<path d="M-704.524 106.74C-704.524 106.74 160.451 429.425 776.633 74.1641C1285.06 -218.955 1433.2 730.532 1433.2 730.532" stroke="#858584" stroke-width="1.5" stroke-miterlimit="10"/>
<path d="M-741.913 132.63C-741.913 132.63 140.73 436.55 739.111 76.5156C1221.85 -213.939 1430.85 717.474 1430.85 717.474" stroke="#8B8B8A" stroke-width="1.5" stroke-miterlimit="10"/>
<path d="M-779.27 158.527C-779.27 158.527 121.221 443.942 701.589 78.867C1158.81 -208.734 1428.57 704.415 1428.57 704.415" stroke="#919190" stroke-width="1.5" stroke-miterlimit="10"/>
<path d="M-816.635 184.417C-816.635 184.417 101.954 451.616 664.075 81.2189C1095.96 -203.31 1426.27 691.357 1426.27 691.357" stroke="#979796" stroke-width="1.5" stroke-miterlimit="10"/>
<path d="M-854 210.315C-854 210.315 82.9858 459.572 626.561 83.5702C1033.27 -197.776 1423.97 678.298 1423.97 678.298" stroke="#9D9D9C" stroke-width="1.5" stroke-miterlimit="10"/>
</g>
</g>
</g>
</svg>
