<svg width="1440" height="221" viewBox="0 0 1440 221" fill="none" xmlns="http://www.w3.org/2000/svg">
<mask id="mask0_29_63" style="mask-type:alpha" maskUnits="userSpaceOnUse" x="0" y="0" width="1440" height="221">
<rect width="1440" height="221" fill="#000032"/>
</mask>
<g mask="url(#mask0_29_63)">
<g opacity="0.5">
<g opacity="0.46">
<path d="M-251.074 -225C-251.074 -225 409.159 337.333 1231.85 24.9621C2054.55 -287.408 1465.85 866.227 1465.85 866.227" stroke="#3C3C3B" stroke-width="1.5" stroke-miterlimit="10"/>
<path d="M-288.447 -199.11C-288.447 -199.11 389.085 343.658 1194.34 27.3136C1991.04 -283.082 1463.55 853.169 1463.55 853.169" stroke="#424241" stroke-width="1.5" stroke-miterlimit="10"/>
<path d="M-325.82 -173.173C-325.82 -173.173 368.141 347.844 1156.81 29.6651C1926.67 -280.926 1461.23 840.141 1461.23 840.141" stroke="#484847" stroke-width="1.5" stroke-miterlimit="10"/>
<path d="M-363.185 -147.307C-363.185 -147.307 347.652 353.252 1119.3 32.0166C1862.77 -277.493 1458.94 827.051 1458.94 827.051" stroke="#4E4E4D" stroke-width="1.5" stroke-miterlimit="10"/>
<path d="M-400.557 -121.441C-400.557 -121.441 327.186 358.778 1081.78 34.368C1798.91 -273.934 1456.63 813.993 1456.63 813.993" stroke="#545453" stroke-width="1.5" stroke-miterlimit="10"/>
<path d="M-437.93 -95.5276C-437.93 -95.5276 306.744 364.422 1044.29 36.7117C1735.1 -270.242 1454.34 800.942 1454.34 800.942" stroke="#5A5A59" stroke-width="1.5" stroke-miterlimit="10"/>
<path d="M-475.303 -69.6299C-475.303 -69.6299 286.349 370.198 1006.74 39.0633C1671.29 -266.394 1452.02 787.876 1452.02 787.876" stroke="#60605F" stroke-width="1.5" stroke-miterlimit="10"/>
<path d="M-512.668 -43.7402C-512.668 -43.7402 265.993 376.124 969.226 41.4146C1607.56 -262.404 1449.71 774.817 1449.71 774.817" stroke="#666665" stroke-width="1.5" stroke-miterlimit="10"/>
<path d="M-550.041 -17.8425C-550.041 -17.8425 245.692 382.207 931.704 43.7662C1543.87 -258.25 1447.41 761.751 1447.41 761.751" stroke="#6C6C6B" stroke-width="1.5" stroke-miterlimit="10"/>
<path d="M-587.414 8.05495C-587.414 8.05495 225.477 388.461 894.229 46.1175C1480.29 -253.908 1445.1 748.708 1445.1 748.708" stroke="#737372" stroke-width="1.5" stroke-miterlimit="10"/>
<path d="M-624.786 33.9448C-624.786 33.9448 205.348 394.912 856.645 48.4691C1416.74 -249.455 1442.77 735.649 1442.77 735.649" stroke="#797978" stroke-width="1.5" stroke-miterlimit="10"/>
<path d="M-662.152 59.8425C-662.152 59.8425 185.329 401.591 819.146 50.8206C1353.35 -244.799 1440.49 722.56 1440.49 722.56" stroke="#7F7F7E" stroke-width="1.5" stroke-miterlimit="10"/>
<path d="M-699.524 85.7401C-699.524 85.7401 165.451 408.426 781.633 53.1643C1290.06 -239.955 1438.2 709.532 1438.2 709.532" stroke="#858584" stroke-width="1.5" stroke-miterlimit="10"/>
<path d="M-736.913 111.63C-736.913 111.63 145.73 415.551 744.111 55.5157C1226.85 -234.939 1435.85 696.474 1435.85 696.474" stroke="#8B8B8A" stroke-width="1.5" stroke-miterlimit="10"/>
<path d="M-774.27 137.527C-774.27 137.527 126.221 422.942 706.589 57.8673C1163.81 -229.734 1433.57 683.415 1433.57 683.415" stroke="#919190" stroke-width="1.5" stroke-miterlimit="10"/>
<path d="M-811.635 163.417C-811.635 163.417 106.954 430.616 669.075 60.2187C1100.96 -224.31 1431.27 670.357 1431.27 670.357" stroke="#979796" stroke-width="1.5" stroke-miterlimit="10"/>
<path d="M-849 189.315C-849 189.315 87.9858 438.571 631.561 62.5701C1038.27 -218.776 1428.97 657.298 1428.97 657.298" stroke="#9D9D9C" stroke-width="1.5" stroke-miterlimit="10"/>
</g>
</g>
</g>
</svg>
